<svg
  width="17"
  height="16"
  viewBox="0 0 17 16"
  fill="none"
  xmlns="http://www.w3.org/2000/svg"
>
  <path
    d="M0.0732422 8C0.0732422 3.58125 3.6463 0 8.05493 0C12.4636 0 16.0366 3.58125 16.0366 8C16.0366 12.4187 12.4636 16 8.05493 16C3.6463 16 0.0732422 12.4187 0.0732422 8ZM11.6654 6.61875C12.0052 6.27813 12.0052 5.72187 11.6654 5.38125C11.3256 5.04062 10.7706 5.04062 10.4307 5.38125L7.05722 8.7625L5.67913 7.38125C5.33929 7.04062 4.78431 7.04062 4.44446 7.38125C4.10462 7.72187 4.10462 8.27812 4.44446 8.61875L6.43989 10.6187C6.77973 10.9594 7.33471 10.9594 7.67455 10.6187L11.6654 6.61875Z"
    fill="#3E5DC7"
  />
</svg>